<svg width="54" height="54" viewBox="0 0 54 54" fill="none"
    xmlns="http://www.w3.org/2000/svg">
    <circle cx="27" cy="27" r="27" fill="white"/>
    <path d="M11.0352 25.3311C11.405 24.1831 11.6822 23.4359 11.8667 23.0897C12.3371 22.171 12.9377 21.5715 13.6686 21.2913C12.6855 21.2913 11.7493 21.6078 10.8601 22.2409C10.0955 22.7897 9.20504 23.9381 8.18866 25.6863C8.00375 26.0241 7.69501 26.5044 7.26245 27.127C6.82989 27.7497 6.48292 28.2149 6.22156 28.5227C5.73633 29.1187 5.14703 29.6207 4.48258 30.0042C3.91123 30.3416 3.39847 30.5106 2.9443 30.511C2.31437 30.511 1.9996 30.2491 2.00002 29.7254C1.99944 29.5955 2.01154 29.4659 2.03617 29.3383C2.05577 29.2324 2.08583 29.1288 2.12592 29.0289C2.1814 28.8873 2.24123 28.8748 2.23874 28.9098C2.23874 28.9355 2.2163 28.9512 2.2269 29.1686C2.2301 29.2546 2.25275 29.3388 2.29314 29.4148C2.33352 29.4908 2.39059 29.5565 2.46001 29.607C2.61583 29.7298 2.81944 29.791 3.07083 29.7906C3.56037 29.792 4.04358 29.6794 4.48258 29.4617C4.92761 29.2421 5.43164 28.8662 5.99468 28.3342C6.65952 27.7077 7.32727 26.8255 7.99793 25.6875C8.73715 24.4455 9.16141 23.7481 9.27069 23.5953C9.77472 22.8436 10.2453 22.3159 10.6824 22.0123C11.5073 21.4389 12.3514 21.1522 13.2149 21.1522C13.4385 21.1526 13.6618 21.1696 13.883 21.203C14.1235 21.0752 14.3902 21.0057 14.6621 21C14.9148 21 15.0409 21.0626 15.0405 21.1879C15.0405 21.2894 14.9308 21.3401 14.7126 21.3401C14.6453 21.3401 14.5406 21.3358 14.3979 21.327C14.2551 21.3182 14.1542 21.3145 14.0949 21.3145C13.7509 21.3145 13.3856 21.593 12.9992 22.1501C12.5367 22.8258 12.0871 23.8772 11.6504 25.3042C11.0687 27.2035 10.7957 28.5079 10.8314 29.2174C10.8484 29.5465 10.966 29.711 11.1842 29.711C11.4447 29.711 11.7597 29.5127 12.1291 29.1159C12.1665 29.0758 12.1983 29.0433 12.2232 29.0157C12.313 28.9161 12.3217 28.9531 12.3242 28.9618C12.3354 28.9963 12.308 29.0558 12.2425 29.141C12.0763 29.3607 11.8033 29.6056 11.4235 29.8758C10.9951 30.1798 10.6677 30.3318 10.4412 30.3318C10.1466 30.3318 10.0205 30.0911 10.0629 29.6096C10.0965 29.1961 10.2393 28.4653 10.4911 27.4171C10.7022 26.5075 10.8836 25.8122 11.0352 25.3311ZM17.6739 29.0758C17.7325 29.1009 17.7156 29.1598 17.6234 29.2525C17.3389 29.5312 17.0254 29.7783 16.6885 29.9898C16.3269 30.2203 16.0496 30.3358 15.8564 30.3362C15.563 30.3362 15.4161 30.1723 15.4157 29.8445C15.4157 29.2481 15.5965 28.3887 15.9573 27.2373C15.7812 27.6662 15.4487 28.1705 14.9601 28.7501C14.0696 29.8088 13.3933 30.3381 12.9313 30.3381C12.7044 30.3381 12.5951 30.1447 12.6034 29.758C12.6209 28.7754 12.9192 27.7462 13.4985 26.6704C13.8089 26.0991 14.2834 25.5572 14.9221 25.0448C15.4851 24.5913 15.9629 24.3729 16.3556 24.3896C16.7342 24.4067 16.9022 24.6335 16.8599 25.0699C17.0614 24.9108 17.2251 24.7721 17.351 24.6539C17.4433 24.5618 17.5068 24.5324 17.538 24.5656C17.5548 24.5831 17.538 24.6333 17.4881 24.7172C17.1179 25.3553 16.8063 26.1534 16.5532 27.1114C16.3594 27.8593 16.2546 28.4707 16.2378 28.975C16.226 29.1431 16.2302 29.3119 16.2503 29.4793C16.2918 29.6638 16.4053 29.7561 16.5906 29.7561C16.8258 29.7561 17.1451 29.5546 17.5486 29.1516C17.619 29.0928 17.6539 29.0677 17.6739 29.0758ZM16.565 25.4232C16.5894 25.3587 16.6021 25.2904 16.6024 25.2215C16.6024 25.0031 16.4848 24.8644 16.2497 24.8055C16.1711 24.7882 16.0908 24.7795 16.0103 24.7798C15.6488 24.7798 15.3085 24.9143 14.9894 25.1833C14.536 25.5695 14.1454 26.2417 13.8176 27.1997C13.5321 28.0316 13.3935 28.6912 13.4018 29.1786C13.41 29.5062 13.4904 29.6697 13.6412 29.6697C13.91 29.6697 14.3175 29.3337 14.8635 28.6618C15.4772 27.9059 16.0444 26.8264 16.565 25.4232ZM20.7511 29.4373C20.731 29.6057 20.6958 29.772 20.6457 29.934C20.3686 30.8657 19.8024 31.7106 18.9473 32.4685C18.1914 33.1367 17.3724 33.4871 16.4902 33.5197C15.5915 33.5535 15.1294 33.2159 15.1041 32.5068C15.1012 32.231 15.1591 31.9581 15.2736 31.7074C15.3577 31.5126 15.4381 31.4256 15.4705 31.4043C15.4791 31.3972 15.4893 31.3924 15.5002 31.3903C15.5111 31.3882 15.5223 31.3889 15.5329 31.3924C15.5497 31.4005 15.5372 31.4512 15.4949 31.5439C15.4487 31.6495 15.4151 31.7601 15.3945 31.8734C15.353 32.1942 15.4789 32.479 15.7722 32.7279C16.0656 32.9768 16.452 33.1098 16.9315 33.1269C17.7468 33.1607 18.4272 32.7978 18.9728 32.0382C19.4009 31.433 19.737 30.7671 19.9701 30.0625C20.0491 29.7849 20.0768 29.495 20.0517 29.2074C20.0315 28.9983 19.9739 28.7945 19.8816 28.606C19.8119 28.4625 19.7081 28.3386 19.5793 28.2452C19.4844 28.1731 19.3702 28.1312 19.2514 28.1249C19.075 28.1249 18.9167 28.1512 18.6481 28.2916C18.6113 28.311 18.5708 28.3229 18.5708 28.264C18.5708 28.1851 18.6044 28.118 18.6718 28.1055C18.7391 28.093 18.8693 28.061 19.0626 28.0109C19.2172 27.9612 19.3653 27.893 19.5039 27.808C19.717 27.6837 19.9124 27.5309 20.0848 27.3538C20.2887 27.1441 20.4606 26.9052 20.5946 26.6447C20.7452 26.3514 20.821 26.0251 20.8153 25.695C20.8153 25.2979 20.7544 25.017 20.6326 24.8525C20.582 24.7766 20.5135 24.7144 20.4333 24.6714C20.3531 24.6284 20.2636 24.6058 20.1726 24.6057C19.9356 24.6082 19.7024 24.6668 19.492 24.7767C19.282 24.8807 19.0835 25.0067 18.8999 25.1526C18.8209 25.216 18.7501 25.2774 18.6873 25.3367C18.5802 25.4416 18.4834 25.5566 18.3981 25.68C18.3981 25.5447 18.3981 25.4351 18.3981 25.3668C18.7131 25.0117 19.1149 24.7455 19.5637 24.5944C19.952 24.4653 20.3577 24.3969 20.7666 24.3915C20.9799 24.3961 21.1841 24.4795 21.3401 24.6257C21.5208 24.7823 21.6112 25.0505 21.6112 25.4301C21.6125 25.7382 21.5378 26.0419 21.3937 26.3139C21.257 26.5752 21.0875 26.8177 20.8894 27.0356C20.7045 27.2353 20.4998 27.4156 20.2786 27.5737C20.09 27.7147 19.8915 27.8418 19.6846 27.9539C19.9196 27.9539 20.1776 28.0166 20.3166 28.1055C20.4487 28.1871 20.5538 28.3061 20.6189 28.4475C20.68 28.5872 20.8047 28.9199 20.7511 29.4373ZM22.7138 28.2934C22.6801 28.8259 22.7477 29.2316 22.9164 29.5106C23.0851 29.7895 23.3552 29.929 23.7266 29.929C24.0724 29.929 24.4314 29.743 24.8037 29.3709C24.8797 29.312 24.9283 29.2907 24.9427 29.3082C24.957 29.3258 24.9427 29.3759 24.8673 29.4605C24.6587 29.6724 24.4199 29.8519 24.1586 29.9929C23.7792 30.2126 23.4248 30.3268 23.0952 30.3356C22.6822 30.3435 22.387 30.2166 22.2095 29.9547C22.0662 29.7355 21.9945 29.406 21.9945 28.9662C22 28.2404 22.1543 27.5235 22.4477 26.8602C22.7411 26.197 23.1673 25.6016 23.6998 25.1112C24.2147 24.6293 24.6661 24.3883 25.0542 24.3883C25.3663 24.3883 25.5225 24.5658 25.523 24.9208C25.523 25.5384 25.2246 26.0711 24.6279 26.5188C24.1821 26.8483 23.7831 27.0552 23.4312 27.1396C23.3302 27.1653 23.2797 27.1565 23.2797 27.1145C23.2782 27.1003 23.2796 27.0858 23.2839 27.0722C23.2882 27.0585 23.2953 27.0459 23.3048 27.0352C23.3142 27.0244 23.3258 27.0158 23.3388 27.0098C23.3518 27.0039 23.3658 27.0007 23.3801 27.0005C23.6471 26.9622 23.9016 26.8623 24.1237 26.7086C24.6456 26.3453 24.9065 25.8086 24.9065 25.0987C24.9065 24.8368 24.8093 24.7053 24.6148 24.7053C24.4627 24.7053 24.2895 24.7815 24.095 24.9339C23.7742 25.1878 23.5041 25.5723 23.2847 26.0872C22.9548 26.8731 22.7645 27.6086 22.7138 28.2934ZM30.2444 25.1989C30.2028 26.0266 29.9843 26.8794 29.5887 27.7572C29.3369 28.3231 28.9253 28.8973 28.3539 29.4799C27.7826 30.0625 27.2661 30.3537 26.8044 30.3537C26.5102 30.3537 26.338 30.2059 26.2877 29.9102C26.0937 30.6619 25.8458 31.5907 25.5441 32.6966C25.5302 32.7592 25.501 32.8175 25.4592 32.8661C25.4175 32.9147 25.3644 32.9522 25.3048 32.9753C25.0986 33.0437 24.9094 33.1559 24.7501 33.3042C24.7332 33.3259 24.7184 33.3492 24.7058 33.3737C24.6853 33.4119 24.6622 33.4263 24.6366 33.4182C24.6111 33.4101 24.6198 33.3556 24.6622 33.2535C24.9896 32.3669 25.4725 30.8346 26.1107 28.6568C26.4556 27.4908 26.6742 26.5324 26.7664 25.7815C26.8321 25.2428 26.7808 24.9734 26.6125 24.9734C26.4442 24.9734 26.2131 25.096 25.9194 25.3411C25.8608 25.4 25.8228 25.4038 25.8059 25.3536C25.7889 25.3198 25.8225 25.2735 25.9069 25.2146C26.6711 24.6658 27.2046 24.3912 27.5075 24.3908C27.6079 24.3908 27.6583 24.4842 27.6583 24.6696C27.6583 25.0413 27.4273 25.9997 26.9652 27.5449C27.2377 26.9642 27.5806 26.4197 27.9862 25.9237C28.258 25.5821 28.5617 25.2675 28.8931 24.984C29.2882 24.6546 29.5949 24.4898 29.8131 24.4898C30.1243 24.4898 30.2681 24.7262 30.2444 25.1989ZM29.4727 25.9212C29.4815 25.4313 29.3682 25.1864 29.133 25.1864C28.8301 25.1864 28.4227 25.5326 27.9108 26.225C27.3544 26.9797 26.9284 27.8232 26.6505 28.72C26.5495 29.032 26.4487 29.3611 26.3482 29.7073C26.4728 29.8595 26.6835 29.9353 26.9783 29.9353C27.5073 29.9353 27.9692 29.7286 28.3639 29.3151C28.6415 29.0195 28.8908 28.5254 29.1119 27.833C29.3212 27.216 29.4427 26.5724 29.4727 25.9212Z" fill="url(#paint0_linear_1200_3)"/>
    <path d="M32.7531 29.3277C32.2266 30 31.7793 30.3362 31.4112 30.3362C30.9848 30.3362 30.7844 30.1303 30.8097 29.7186C30.8395 29.44 30.9242 29.1702 31.059 28.9249C31.1008 28.8322 31.1344 28.7996 31.1594 28.824C31.1843 28.8485 31.1793 28.8754 31.1594 28.9249C31.0229 29.2575 31.097 29.3991 31.1781 29.4887C31.2591 29.5782 31.385 29.6271 31.5608 29.6271C31.9705 29.6271 32.38 29.3962 32.7893 28.9343C32.9482 28.7576 33.1308 28.4826 33.3565 28.0874C33.5821 27.6921 33.6993 27.424 33.7074 27.2812C33.7155 27.1383 33.6662 26.7067 33.5659 26.0765C33.4828 25.59 33.4055 25.2751 33.334 25.1319C33.3083 25.0681 33.264 25.0135 33.207 24.9753C33.15 24.9371 33.0828 24.917 33.0143 24.9177C32.7047 24.9177 32.4078 25.0605 32.1236 25.3461C32.0569 25.4132 32.0108 25.4338 31.9859 25.4088C31.9441 25.3756 31.9566 25.3292 32.0232 25.2703C32.1895 25.1275 32.5657 24.8964 33.152 24.5769C33.4192 24.4349 33.6199 24.3723 33.7541 24.389C33.8196 24.3913 33.883 24.4129 33.9364 24.4509C33.9899 24.489 34.0312 24.5419 34.0552 24.6032C34.0963 24.6953 34.1343 24.8951 34.168 25.2014C34.2016 25.5078 34.2509 26.0421 34.3095 26.7399C34.585 26.1761 34.8486 25.747 35.0992 25.4445C35.6763 24.7391 36.1403 24.3862 36.491 24.3858C36.7085 24.3858 36.8132 24.4704 36.8026 24.6364C36.7947 24.8381 36.6701 24.9473 36.4287 24.964C35.9911 24.9866 35.5786 25.1759 35.2749 25.4933C35.116 25.6531 34.924 25.9124 34.6984 26.2776C34.4728 26.6428 34.355 26.889 34.3469 27.0149C34.3136 27.3423 34.3953 27.8863 34.5918 28.6468C34.7884 29.4072 35.0412 29.7875 35.3504 29.7875C35.576 29.7875 35.8141 29.6952 36.0647 29.5106C36.1569 29.4429 36.2068 29.4141 36.2155 29.4223C36.2404 29.4553 36.2236 29.497 36.165 29.5476C35.555 30.0687 35.0535 30.3291 34.6604 30.3287C34.5614 30.3331 34.4633 30.3087 34.3777 30.2585C34.2921 30.2083 34.2228 30.1344 34.178 30.0456C34.0732 29.8564 33.9874 29.5098 33.9205 29.0057C33.8287 28.3505 33.7786 27.8842 33.7703 27.6069C33.5863 27.9827 33.4483 28.2515 33.3565 28.4131C33.182 28.7349 32.9802 29.0409 32.7531 29.3277ZM41.6543 29.0771C41.7123 29.1022 41.6961 29.1611 41.6038 29.2538C41.3218 29.5321 41.0108 29.7793 40.6764 29.9911C40.3169 30.2216 40.041 30.3371 39.8486 30.3375C39.5557 30.3375 39.4103 30.1736 39.4123 29.8457C39.4123 29.2494 39.59 28.383 39.9496 27.2317C39.7739 27.6601 39.4435 28.1642 38.9586 28.7439C38.0727 29.8025 37.3997 30.3318 36.9398 30.3318C36.7141 30.3318 36.6055 30.1387 36.6138 29.7524C36.6304 28.7689 36.9273 27.7397 37.5045 26.6648C37.8161 26.0935 38.2823 25.5585 38.9175 25.0461C39.478 24.5925 39.9546 24.3741 40.3473 24.3908C40.7237 24.408 40.891 24.6347 40.849 25.0711C41.0489 24.912 41.2118 24.7734 41.3377 24.6552C41.4299 24.5631 41.4923 24.5337 41.5247 24.5675C41.5415 24.5844 41.5247 24.6345 41.4742 24.7185C41.1064 25.3568 40.801 26.148 40.5498 27.1058C40.3579 27.8537 40.255 28.472 40.2382 28.9763C40.2262 29.1444 40.2305 29.3133 40.2513 29.4805C40.2928 29.6651 40.4057 29.7574 40.5897 29.7574C40.8237 29.7574 41.1413 29.5559 41.5427 29.1529C41.5995 29.0928 41.6375 29.0677 41.6543 29.0759V29.0771ZM40.5455 25.4232C40.5698 25.3587 40.5825 25.2904 40.5829 25.2215C40.5829 25.0031 40.4659 24.8644 40.232 24.8055C40.1538 24.7885 40.0739 24.78 39.9939 24.7805C39.6344 24.7805 39.2958 24.9147 38.9779 25.1833C38.5266 25.5698 38.1415 26.235 37.8155 27.1928C37.5304 28.0243 37.3925 28.6837 37.4016 29.1711C37.4097 29.4987 37.4895 29.6628 37.6397 29.6628C37.9073 29.6628 38.3126 29.3266 38.8557 28.6543C39.4691 27.8982 40.03 26.8264 40.5455 25.4232ZM47.7133 24.6408C47.7106 24.7032 47.6933 24.7641 47.6627 24.8185C47.6322 24.873 47.5893 24.9194 47.5375 24.954C47.4204 25.0467 47.2994 25.1419 47.1742 25.2315C46.5347 25.8432 46.005 26.5611 45.6085 27.3538C45.3828 27.7902 45.1404 28.3152 44.8811 28.9286C44.5383 29.7104 44.3293 30.1853 44.2541 30.3531C43.9279 31.07 43.4875 31.7284 42.9501 32.3026C42.4066 32.8739 41.9259 33.1595 41.5078 33.1595C40.8974 33.1595 40.5924 32.815 40.5929 32.1259C40.5896 31.817 40.6404 31.51 40.7431 31.2188C40.768 31.1261 40.8017 31.0842 40.8434 31.0936C40.8602 31.0936 40.8559 31.1355 40.8309 31.2188C40.7982 31.3378 40.7812 31.4606 40.7805 31.5841C40.7792 31.7016 40.8019 31.8182 40.8473 31.9266C40.8926 32.035 40.9596 32.1329 41.0441 32.2142C41.1271 32.2999 41.2266 32.3676 41.3366 32.4131C41.4466 32.4587 41.5647 32.4812 41.6836 32.4792C42.4777 32.4792 43.2672 31.7607 44.0521 30.3237C44.2279 30.0051 44.4496 29.5473 44.7172 28.9506C45.1098 28.0677 45.3562 27.5173 45.4564 27.2993C46.0356 26.0732 46.5085 25.2332 46.875 24.7792C47.0827 24.519 47.2876 24.389 47.4895 24.389C47.64 24.389 47.7152 24.4729 47.7152 24.6408H47.7133ZM44.4653 29.2281C44.4572 29.3709 44.4192 29.4718 44.3525 29.5306L43.9405 29.9848C43.8988 30.0274 43.8695 30.0437 43.8527 30.0355C43.8358 30.0274 43.8321 29.9641 43.8402 29.8714C43.9324 29.1072 43.9324 28.1999 43.8402 27.1496C43.7155 25.7297 43.423 25.0198 42.9626 25.0198C42.7702 25.0198 42.5446 25.1659 42.2857 25.4583C42.2433 25.5084 42.2103 25.5253 42.1854 25.5084C42.143 25.4833 42.1561 25.4376 42.2228 25.3699C42.524 25.0676 42.8124 24.7903 43.0879 24.5381C43.247 24.3952 43.3974 24.3238 43.5391 24.3238C43.9405 24.3238 44.2123 24.9582 44.3544 26.2269C44.4627 27.2233 44.5004 28.2263 44.4672 29.2281H44.4653ZM50.1335 29.4473C50.1159 29.6701 50.0677 29.8893 49.9902 30.0988C49.6972 30.9576 49.15 31.7219 48.3528 32.4291C47.5999 33.0927 46.7846 33.4414 45.907 33.4752C45.0132 33.5082 44.5536 33.172 44.5283 32.4667C44.5196 32.1639 44.6027 31.8405 44.7776 31.4964C44.853 31.3874 44.9116 31.341 44.9534 31.3579C44.9702 31.3661 44.9577 31.4168 44.9154 31.5089C44.8693 31.6138 44.8356 31.7237 44.815 31.8365C44.7735 32.156 44.8981 32.4395 45.189 32.6872C45.4799 32.9348 45.8644 33.0672 46.3427 33.0843C47.1534 33.1173 47.8305 32.7561 48.374 32.0006C48.7996 31.3983 49.1334 30.7356 49.3644 30.0343C49.4435 29.7582 49.4712 29.4698 49.4461 29.1836C49.4257 28.9756 49.3683 28.7729 49.2765 28.5854C49.2073 28.4425 49.1039 28.3191 48.9755 28.2264C48.8813 28.1543 48.7677 28.1124 48.6495 28.1062C48.4743 28.1062 48.3322 28.145 48.048 28.269C48.0112 28.2853 47.9757 28.2972 47.9782 28.2383C47.9826 28.1531 48.0056 28.0999 48.0729 28.0874C48.1403 28.0748 48.2693 28.0435 48.4619 27.9928C48.6149 27.9436 48.7615 27.8759 48.8982 27.7911C49.11 27.6669 49.3039 27.5143 49.4747 27.3375C49.6783 27.1291 49.8495 26.8911 49.9827 26.6316C50.1323 26.3397 50.2077 26.0152 50.2021 25.6869C50.2021 25.2914 50.1414 25.012 50.0201 24.8488C49.9699 24.773 49.9019 24.7109 49.8221 24.6679C49.7423 24.625 49.6531 24.6025 49.5626 24.6026C49.3268 24.6052 49.0949 24.6636 48.8857 24.773C48.6766 24.8757 48.479 25.0004 48.2961 25.1451C48.1551 25.2562 48.0264 25.3822 47.9121 25.5209C47.8714 25.5706 47.8338 25.6227 47.7993 25.6769C47.7993 25.5366 47.7943 25.4263 47.7943 25.3637C48.1459 24.9853 48.5325 24.7289 48.9543 24.5944C49.341 24.466 49.745 24.398 50.1522 24.3927C50.3644 24.3977 50.5674 24.4809 50.7225 24.6264C50.9075 24.7788 50.9999 25.044 50.9999 25.4219C51.0029 25.7292 50.9296 26.0323 50.7867 26.3039C50.6518 26.5639 50.4842 26.8054 50.2881 27.0224C50.1062 27.2236 49.9021 27.4033 49.6798 27.558C49.4666 27.7052 49.1039 27.9376 49.1039 27.9376C49.3177 27.9336 49.529 27.9851 49.7172 28.0874C49.8489 28.1682 49.9537 28.2866 50.0182 28.4275C50.0838 28.5774 50.124 28.7373 50.1373 28.9005C50.1556 29.0823 50.1549 29.2656 50.1354 29.4473H50.1335Z" fill="url(#paint1_linear_1200_3)"/>
    <path d="M19.1124 23.2044C18.9338 23.2802 18.741 23.3165 18.5471 23.3109C17.9438 23.3109 17.4875 22.9206 17.4875 22.2077C17.4875 21.5268 17.9419 21.0658 18.6057 21.0658C18.7801 21.0586 18.9539 21.0916 19.1137 21.1622L19.047 21.3915C18.9115 21.3295 18.7639 21.2987 18.6151 21.3013C18.1133 21.3013 17.7799 21.627 17.7799 22.1977C17.7799 22.7302 18.0815 23.0747 18.6026 23.0747C18.7575 23.0769 18.911 23.0461 19.0532 22.9845L19.1124 23.2044ZM23.5073 22.1658C23.5073 22.9175 23.0591 23.3109 22.51 23.3109C21.9447 23.3109 21.5476 22.8655 21.5476 22.2077C21.5476 21.5187 21.9702 21.0658 22.5449 21.0658C23.1295 21.0658 23.5073 21.5206 23.5073 22.1658ZM21.8462 22.2015C21.8462 22.6657 22.0955 23.0785 22.5318 23.0785C22.9681 23.0785 23.2174 22.6688 23.2174 22.1758C23.2174 21.7436 22.9949 21.2919 22.5318 21.2919C22.0687 21.2919 21.8462 21.7235 21.8462 22.2015ZM26.1139 22.9331C26.2633 23.0245 26.4345 23.0736 26.6094 23.0753C26.8923 23.0753 27.0575 22.9237 27.0575 22.7045C27.0575 22.5009 26.9428 22.385 26.6542 22.2723C26.3046 22.147 26.0889 21.9622 26.0889 21.6559C26.0889 21.3176 26.365 21.0658 26.7808 21.0658C26.9445 21.0601 27.107 21.0968 27.2526 21.1723L27.1778 21.4028C27.053 21.335 26.9133 21.2997 26.7714 21.3C26.4791 21.3 26.3682 21.4773 26.3682 21.6258C26.3682 21.8288 26.4984 21.929 26.7939 22.0449C27.156 22.1871 27.3399 22.3643 27.3399 22.6838C27.3399 23.019 27.0955 23.3102 26.5919 23.3102C26.4005 23.3117 26.212 23.2627 26.0453 23.168L26.1139 22.9331ZM31.8649 22.3205C31.8475 22.0173 31.8269 21.6527 31.8307 21.3809H31.8201C31.7415 21.6352 31.6462 21.9096 31.5296 22.2065L31.1232 23.2614H30.8982L30.5243 22.2259C30.4152 21.9196 30.3229 21.6389 30.2581 21.3809H30.2512C30.2444 21.6534 30.2301 22.0173 30.2095 22.3424L30.1472 23.2745H29.8642L30.025 21.1008H30.404L30.7966 22.1545C30.8926 22.4226 30.9711 22.6613 31.0291 22.8868H31.0391C31.0977 22.6675 31.1793 22.4289 31.2815 22.1545L31.6917 21.1034H32.0706L32.2146 23.277H31.9273L31.8649 22.3205ZM35.9506 22.2579H35.1198V23.0396H36.0472V23.2752H34.8436V21.1015H35.9992V21.3401H35.1198V22.0292H35.9519L35.9506 22.2579ZM39.1493 21.3401H38.498V21.1015H40.083V21.3401H39.4286V23.2752H39.1493V21.3401ZM42.8835 21.1015V23.2752H42.6073V21.1015H42.8835ZM47.1486 23.2044C46.9699 23.2801 46.7772 23.3165 46.5833 23.3109C45.98 23.3109 45.5237 22.9206 45.5237 22.2077C45.5237 21.5268 45.9781 21.0658 46.6413 21.0658C46.8159 21.0587 46.9898 21.0917 47.1499 21.1622L47.0832 21.3915C46.9477 21.3295 46.8001 21.2987 46.6512 21.3013C46.1526 21.3013 45.816 21.627 45.816 22.1977C45.816 22.7302 46.1177 23.0747 46.6381 23.0747C46.7932 23.0769 46.947 23.0461 47.0894 22.9845L47.1486 23.2044ZM49.7428 22.9331C49.8921 23.0247 50.0633 23.0738 50.2383 23.0753C50.5206 23.0753 50.6858 22.9237 50.6858 22.7045C50.6858 22.5009 50.5711 22.385 50.2825 22.2723C49.9329 22.147 49.7172 21.9622 49.7172 21.6559C49.7172 21.3176 49.9933 21.0658 50.4097 21.0658C50.5738 21.0601 50.7367 21.0967 50.8827 21.1723L50.8061 21.4028C50.6813 21.335 50.5416 21.2997 50.3997 21.3C50.108 21.3 49.9964 21.4773 49.9964 21.6258C49.9964 21.8288 50.1267 21.929 50.4221 22.0449C50.7843 22.1871 50.9681 22.3643 50.9681 22.6838C50.9681 23.019 50.7238 23.3102 50.2202 23.3102C50.0289 23.3117 49.8407 23.2627 49.6742 23.168L49.7428 22.9331Z" fill="url(#paint2_linear_1200_3)"/>
    <defs>
        <linearGradient id="paint0_linear_1200_3" x1="16.1225" y1="33.2722" x2="16.1225" y2="21.2976" gradientUnits="userSpaceOnUse">
            <stop offset="0.35" stop-color="#E8424A"/>
            <stop offset="0.43" stop-color="#E3414A"/>
            <stop offset="0.54" stop-color="#D43F48"/>
            <stop offset="0.65" stop-color="#BB3A46"/>
            <stop offset="0.78" stop-color="#993443"/>
            <stop offset="0.8" stop-color="#913342"/>
        </linearGradient>
        <linearGradient id="paint1_linear_1200_3" x1="40.9039" y1="32.835" x2="40.9039" y2="24.689" gradientUnits="userSpaceOnUse">
            <stop offset="0.28" stop-color="#484239"/>
            <stop offset="0.72" stop-color="#34241B"/>
            <stop offset="1" stop-color="#2B160D"/>
        </linearGradient>
        <linearGradient id="paint2_linear_1200_3" x1="34.2291" y1="23.9742" x2="34.2291" y2="20.517" gradientUnits="userSpaceOnUse">
            <stop offset="0.2" stop-color="#2E1A13"/>
            <stop offset="0.21" stop-color="#361C15"/>
            <stop offset="0.3" stop-color="#6C2725"/>
            <stop offset="0.38" stop-color="#983132"/>
            <stop offset="0.46" stop-color="#BB383D"/>
            <stop offset="0.53" stop-color="#D43E44"/>
            <stop offset="0.6" stop-color="#E34148"/>
            <stop offset="0.65" stop-color="#E8424A"/>
        </linearGradient>
    </defs>
</svg>
