<?xml version="1.0" encoding="utf-8"?>
<!-- Generator: Adobe Illustrator 27.0.0, SVG Export Plug-In . SVG Version: 6.00 Build 0)  -->
<svg version="1.1" id="Layer_1" xmlns="http://www.w3.org/2000/svg" xmlns:xlink="http://www.w3.org/1999/xlink" x="0px" y="0px"
	 viewBox="0 0 834 834" style="enable-background:new 0 0 834 834;" xml:space="preserve">
<style type="text/css">
	.st0{fill:url(#SVGID_1_);}
	.st1{fill:url(#SVGID_00000170277449775888539270000009481216684450864565_);}
</style>
<g>
	<linearGradient id="SVGID_1_" gradientUnits="userSpaceOnUse" x1="221.5656" y1="525.6389" x2="221.5656" y2="294.043">
		<stop  offset="1.902526e-03" style="stop-color:#E41335"/>
		<stop  offset="0.1977" style="stop-color:#DE1335"/>
		<stop  offset="0.4568" style="stop-color:#CD1434"/>
		<stop  offset="0.7498" style="stop-color:#B21634"/>
		<stop  offset="1" style="stop-color:#951733"/>
	</linearGradient>
	<path class="st0" d="M177.6,326.66c-2.47,0-9.13-5.11-22.54-1.55c-16.28,4.32-26.37,17.74-40.36,73.94
		c-0.09,0.36-6.08,28.87-11.67,47.82c-9.65,32.7-24.91,43.5-34.91,51.74c24.2-1.86,49.75,6.83,67.2,6.83
		c16.12,0,22.05-2.45,27.31-8.86c3.09-3.76,4.75-8.65,5.94-13.55c0.27-1.12,2.23-0.7,2.29,2.45c0.16,9.52-1,19.43-7.56,27.29
		c-5.24,6.28-14.37,8.6-21.27,8.6c-8.98,0-19.21-3.27-31.43-5.94c-16.19-3.53-30.67-8.33-51.19-8.33c-9.12,0-16.67,1.47-24.87,4.43
		c-1.89,0.55-2.5,0.73-3.15-0.08c-1.07-1.34,0.66-6.31,2.74-7.88c5.63-4.26,11.59-2.85,21.35-4.3c2.99-1.13,3.15-1.48,7.04-5.18
		c7.4-7.03,12.12-17.12,16.16-28.09c12.55-34.09,13.06-45.61,22.96-76.47c11.47-35.76,27.77-56.75,41.7-65.49
		c10.48-6.57,17.87-8.22,25.79-8.22C177.22,315.82,178.97,326.66,177.6,326.66z M215.91,456.13c-2.18,3.3-5.44,7.31-10.97,11.62
		c-4.6,3.58-10.37,6.59-16.64,6.59c-6.16,0-9.7-3.85-9.7-10.55c0-6.93,1.43-16.13,4.26-27.4c-2.32,3.26-4.98,6.68-7.94,10.22
		c-15.63,18.66-27.4,27.72-35.98,27.72c-2.04,0-3.73-0.68-5.04-2.01c-1.95-1.99-2.84-5.28-2.74-10.07
		c0.29-16.88,5.46-34.76,15.38-53.15c5.37-9.87,13.65-19.33,24.62-28.13c10.04-8.09,18.46-11.88,25.76-11.56
		c3.61,0.16,6.38,1.32,8.23,3.45c1.23,1.41,2.01,3.23,2.35,5.43c1.78-1.48,3.32-2.83,4.6-4.02c3.19-3.2,5.2-2.55,6.32-1.44
		c1.67,1.68,0.2,4.13-0.51,5.31c-6.1,10.53-11.31,23.93-15.5,39.84c-3.21,12.39-4.97,22.89-5.25,31.2
		c-0.18,5.49,0.02,7.33,0.16,7.94c0.48,2.1,1.47,2.92,3.55,2.92c9.09,0,15.73-13.6,17.81-11.67
		C219.45,449.11,218.59,452.07,215.91,456.13z M169.74,442.16c10.15-12.52,19.69-30.7,28.36-54.05c0.33-0.88,0.5-1.76,0.5-2.62
		c0-2.64-1.27-4.09-4.25-4.84c-1.07-0.24-2.25-0.36-3.5-0.36c-5.53,0-10.84,2.11-15.79,6.28c-7.31,6.23-13.74,17.35-19.11,33.05
		c-4.72,13.73-7.04,24.71-6.9,32.64c0.09,3.7,0.8,6.09,1.79,6.09C152.99,458.35,158.29,456.24,169.74,442.16z M287.22,377.59
		L287.22,377.59c0.6-2.15,0.35-3.97-0.74-5.41c-1.41-1.86-4.04-2.77-8.02-2.77c-8.54,0-16.57,2.72-23.88,8.09
		c-10.5,7.65-15.82,16.21-15.82,25.44c0,4.5,1.38,9.16,4.1,13.83c1.05,1.95,3.75,5.93,8.25,12.17c6.07,8.36,9.15,15.22,9.15,20.38
		c0,3.79-1.3,6.87-3.95,9.41c-3.14,2.89-7.17,4.3-12.31,4.3c-12.5,0-14.03-4.91-14.45-6.38c-0.95-3.37-0.45-5.15,0.72-9.02
		c0.7-2.31-2.62-1.74-5.19,2.62c-3.03,5.12-4.18,9.22-4.18,14.4c0,3.62,1.59,9.7,12.25,9.7c9.38,0,18.12-2.86,25.99-8.5
		c10.51-7.51,15.84-15.71,15.84-24.39c0-6.81-3.77-14.99-11.54-25c-6.6-8.49-9.95-14.9-9.95-19.04c0-6.34,1.85-11.09,5.64-14.5
		c2.54-2.3,6.04-3.46,10.41-3.46c0.56,0,1.89,0.16,4.6,1.23c2.53,1,4.34,1.56,5.59,1.74C283.53,382.81,286.19,381.09,287.22,377.59z
		 M409.97,371.62c-1.26-1.1-2.95-1.54-5-1.35c-6.49,0.49-14.17,7.95-23.5,22.86c-0.46,0.84-0.91,1.65-1.35,2.45
		c1.68-6.9,2.9-12.88,3.63-17.84c0.44-2.97,0.04-5.12-1.22-6.57c-0.69-0.8-1.97-1.75-4.2-1.75c-5.07,0-13.85,4.52-26.82,13.81
		c-1.02,0.71-3.4,2.38-2.76,4.89c0.49,1.47,1.53,1.92,2.11,2.05c0.8,0.19,2.04,0.11,3.45-1.31c5.18-4.68,8.08-5.38,9.34-5.38
		c0.32,0,1.15,0,1.15,3.07c0,9.13-2.34,22.53-6.94,39.84c-5.6,20.86-10.4,35.08-14.26,42.26c-0.64,1.15-1.22,2.52-0.64,3.85
		c0.33,0.75,0.99,1.34,1.69,1.5c0.31,0.1,0.64,0.16,0.99,0.16c0.86,0,1.78-0.33,2.76-0.98c3.59-2.07,6.62-3.78,9-5.08
		c2.88-1.57,4.71-3.68,5.45-6.26c2.68-9.59,5.04-18.33,7.02-25.95c4.04-13.52,8.55-24.74,13.4-33.32c2.96-5.11,6.7-9.47,11.12-12.95
		c2.62-1.99,6.45-3.2,11.4-3.59c1.97-0.19,6.54-1.48,6.29-9.36C411.97,374.44,411.27,372.74,409.97,371.62z M330.61,454.32
		L330.61,454.32c-3.5,2.61-11.69,8.71-17.17,8.71c-5.45,0-9.27-1.94-11.69-5.94c-2.58-4.26-3.62-10.68-3.08-19.1
		c0.83-11.19,3.99-23.4,9.4-36.3c3.52-8.26,7.87-14.48,12.93-18.47c2.84-2.23,5.31-3.35,7.34-3.35c0.99,0,2.64,0,2.64,4.35
		c0,8.04-2.07,14.52-6.3,19.61c-1.59,1.92-9.26,10.15-19.81,12.64c-1.4,0.33-0.48,1.85,0.34,2.35c2.74,1.67,6.85,0.75,8.45,0.32
		c6.13-1.63,10.82-4.94,16.38-9.03c10.54-7.86,15.88-17.58,15.88-28.88c0-7.11-3.69-11.19-10.12-11.19
		c-7.18,0-15.14,4.17-24.31,12.74c-7.08,6.65-12.81,13.77-17.01,21.16c-8.1,14.17-12.28,29.36-12.43,45.16
		c0,7.9,1.31,13.74,4.01,17.86c3.36,4.96,8.84,7.37,16.76,7.37c5.24,0,10.52-1.82,15.27-4.33c9-4.74,17.41-13.32,16.91-17.13
		C334.78,451.3,332.79,452.69,330.61,454.32z"/>
	
		<linearGradient id="SVGID_00000101065682777113531170000003883483533470736792_" gradientUnits="userSpaceOnUse" x1="602.3614" y1="468.351" x2="602.3614" y2="311.5773">
		<stop  offset="0" style="stop-color:#515150"/>
		<stop  offset="1" style="stop-color:#1E1E1C"/>
	</linearGradient>
	<path style="fill:url(#SVGID_00000101065682777113531170000003883483533470736792_);" d="M556.83,369.83
		c-4.96,0-10.52,1.98-16.5,5.87c-5.02,3.1-9.14,6.63-12.25,10.48c-14.16,17.05-21.78,37.26-22.65,60.07
		c-0.47,11.28,1.41,18.96,5.74,23.47c2.8,2.92,6.57,4.4,11.19,4.4c8.86,0,18.52-5.84,28.71-17.36
		c14.47-16.36,22.25-36.59,23.12-60.14c0.37-10.61-1.52-17.91-5.76-22.3C565.54,371.35,561.64,369.83,556.83,369.83z M531.92,461.32
		c-3.37-0.01-5.95-1.8-7.88-5.5c-2.15-4.1-3.1-9.62-2.83-16.41c0.83-18.42,5.1-34.47,12.68-47.7c4.23-7.3,8.65-11,13.16-11
		c3.5,0,6.14,1.92,8.09,5.87c2.16,4.39,3.12,10.08,2.86,16.89c-0.83,18.97-5.02,35.01-12.45,47.67
		C541.53,457.87,537.07,461.2,531.92,461.32z M667.05,448.06c1.18,2.99-4.84,11.9-15.24,19.31c-5.45,3.88-11.49,6.54-16.58,6.54
		c-3.01,0-5.35-0.86-6.96-2.56c-1.71-1.81-2.49-4.46-2.3-7.9c0.14-4.38,1.34-12.01,3.66-23.31c0.84-4.11,1.69-7.97,2.52-11.52
		c-3.44,4.83-7.4,9.84-11.81,14.93c-17.31,19.95-29.09,29.88-36.02,30.35c-0.18,0.02-0.39,0.03-0.59,0.03
		c-1.98,0-3.52-1.08-4.23-2.98c-0.56-1.48-0.67-3.7-0.34-6.77c0.58-4.37,2.11-11.14,4.53-20.14l6.82-24.28
		c3.63-13.84,5.76-23.81,6.31-29.61c0.42-4.36-0.4-5.65-0.67-5.94c-0.1-0.11-0.29-0.32-0.92-0.32c0.01,0-1.3,0.19-8.95,4.21
		c-2.8,1.4-4.49,2.24-5.84,0.86c-0.32-0.31-0.86-1.02-0.86-2.22c0-1.43,1-2.3,3.38-3.81c13.25-8.68,22.69-12.9,28.87-12.9
		c2.05,0,3.24,0.95,3.87,1.74c1.38,1.73,1.59,4.42,0.67,8.46c-2.42,7.97-6.36,21.81-11.73,41.17c-3.62,14.6-5.45,24.64-5.45,29.83
		c0,0.91,0.12,1.7,0.25,2c1.47-0.14,6.04-2.28,18.76-17.33c8.04-9.45,15.44-22.1,21.99-37.61c1.53-3.91,3.02-7.9,4.42-11.83
		c2.36-5.53,5-9.22,8.08-11.34c2.11-1.41,4.57-3.01,7.3-4.74c1.25-0.79,2.37-1.04,3.43-0.79c0.86,0.21,1.57,0.74,2.04,1.53
		l0.18,0.39c0.42,1.26,0.03,2.56-1.3,4.57c-4.8,6.61-9.56,19.91-14.15,39.58c-2.8,12.06-4.64,22.58-5.48,31.27
		c-0.28,2.34-0.42,4.35-0.42,5.97c0,6.71,2.65,6.71,3.92,6.71c1.78,0,6.17-1.32,15.59-10.18
		C665.23,447.77,666.68,447.12,667.05,448.06z M783.49,452.88c0.5,3.81-7.91,12.39-16.91,17.13c-4.75,2.5-10.03,4.33-15.27,4.33
		c-7.91,0-13.4-2.41-16.76-7.37c-2.7-4.12-4.01-9.96-4.01-17.86c0.15-15.8,4.33-30.99,12.43-45.16c4.2-7.39,9.93-14.51,17.01-21.16
		c9.17-8.57,17.12-12.74,24.31-12.74c6.43,0,10.12,4.08,10.12,11.19c0,11.3-5.34,21.02-15.88,28.88c-5.56,4.09-10.25,7.4-16.38,9.03
		c-1.6,0.43-5.7,1.34-8.45-0.32c-0.82-0.5-1.74-2.02-0.34-2.35c10.56-2.49,18.22-10.72,19.81-12.64c4.23-5.09,6.3-11.57,6.3-19.61
		c0-4.35-1.65-4.35-2.64-4.35c-2.03,0-4.49,1.13-7.34,3.35c-5.06,4-9.41,10.21-12.93,18.47c-5.41,12.89-8.57,25.11-9.4,36.3
		c-0.53,8.42,0.5,14.85,3.08,19.1c2.42,4,6.25,5.94,11.69,5.94c5.48,0,13.66-6.1,17.16-8.7l0.01-0.01
		C781.3,452.69,783.28,451.3,783.49,452.88z M501.56,325.44c-2.39,0-8.34-4.93-21.33-1.37c-15.76,4.32-25.67,20.26-39.22,76.45
		c-0.04,0.15-1.09,5.31-2.7,12.64c4.07-6.94,9.43-14.92,13.98-20.03c9.1-10.26,18.02-17.39,26.5-21.2c3.65-1.58,6.66-2.27,9.15-2.11
		c1.79,0.19,3.18,0.89,4.15,2.1c1.23,1.53,1.67,3.68,1.35,6.57c-0.08,0.63-0.22,1.78-10.91,42.66c-4.47,17.24-5.41,26.69-5.41,31.58
		c0,6.47,2.79,6.47,4.13,6.47c5.18,0,12.19-6.51,15.02-9.07c1.69-1.53,3.66-3.11,3.88-1.56c0.33,2.38-2.97,10.29-14.77,18.13
		c-7.14,4.75-13.39,7.01-17.76,7.01c-2.84,0-5.06-0.82-6.6-2.45c-1.68-1.77-2.43-4.39-2.25-7.79c0.17-2.81,3.59-18.77,9.8-43.84
		c3.78-15.41,5.91-25.88,6.33-31.13c0.1-2.16-0.47-2.25-0.66-2.28c-2.37-0.27-8.17,1.32-20.09,14.93
		c-3.42,3.95-7.26,9.86-11.41,17.58c-4.58,8.43-7.81,16.17-9.59,23.01c-0.44,2.05-0.98,4.32-1.51,6.52l-0.05,0.19
		c-0.58,2.42-1.24,5.17-1.77,7.71c-1.75,6.81-4.1,11.02-7.21,12.9l-0.14,0.08c-2.05,1.02-4.24,2.27-6.71,3.82
		c-0.01,0.01-0.08,0.08-0.15,0.14c-0.54,0.5-1.36,1.26-2.55,1.26c-0.12,0-0.24-0.01-0.36-0.02c-0.75-0.09-1.4-0.48-1.84-1.08
		c-0.85-1.17-0.57-2.62-0.35-3.79c0.77-3.29,1.92-7.82,3.37-13.56l0.06-0.23c1.14-4.48,6.97-30.03,12-50.21
		c2.1-8.42,5.78-22.35,11.44-37.66c9.15-24.72,20.28-37.57,31.44-44.8c10.15-6.57,16.8-8.4,24.47-8.4
		C501.2,314.6,502.89,325.44,501.56,325.44z M727.12,382.18c-1.25-0.17-3.06-0.74-5.59-1.74c-2.71-1.07-4.04-1.23-4.6-1.23
		c-4.37,0-7.87,1.16-10.41,3.46c-3.8,3.42-5.64,8.16-5.64,14.5c0,4.15,3.35,10.55,9.95,19.04c7.76,10.01,11.54,18.19,11.54,25
		c0,8.67-5.33,16.88-15.84,24.39c-7.87,5.64-16.61,8.5-25.99,8.5c-10.66,0-12.25-6.08-12.25-9.7c0-5.18,1.16-9.28,4.18-14.4
		c2.58-4.36,5.9-4.93,5.19-2.62c-1.17,3.87-1.67,5.65-0.72,9.02c0.41,1.47,1.95,6.38,14.45,6.38c5.14,0,9.16-1.41,12.31-4.3
		c2.66-2.54,3.95-5.62,3.95-9.41c0-5.16-3.08-12.02-9.15-20.38c-4.5-6.24-7.2-10.22-8.25-12.17c-2.72-4.67-4.1-9.33-4.1-13.83
		c0-9.23,5.32-17.79,15.82-25.44c7.31-5.37,15.34-8.09,23.88-8.09c3.98,0,6.6,0.91,8.02,2.77c1.09,1.44,1.34,3.26,0.75,5.41l0,0.01
		C733.59,380.86,730.94,382.58,727.12,382.18z"/>
	<path d="M203.68,500.07c-0.62,0.71-1.46,0.83-2.32,0.33c-0.74-0.41-1.54-0.63-2.36-0.63c-2.55,0-4.65,1.66-6.41,5.09
		c-1.55,2.98-2.33,5.86-2.33,8.57c0,4.08,2.12,4.56,3.72,4.56c0.78,0,1.67-0.28,2.65-0.82c0.68-0.4,1.18-0.77,1.47-1.08
		c0.54-0.62,0.99-0.56,1.28-0.4l0.24,0.13l0.15,0.36c0.1,0.39-0.13,0.75-0.31,0.98c-0.59,0.75-1.59,1.48-3.06,2.23
		c-1.79,0.93-3.49,1.4-5.03,1.4c-2.51,0-5.49-1.05-5.49-6.02c0-3.26,1.11-6.6,3.28-9.93c1.45-2.19,3.16-4.01,5.07-5.41
		c2.19-1.54,4.38-2.32,6.51-2.32c1.01,0,1.79,0.17,2.38,0.51c0.56,0.32,0.89,0.71,0.97,1.16
		C204.18,499.22,204.04,499.65,203.68,500.07z M212.81,505.88c-0.89,0.53-1.92,0.87-3.04,1.01c-0.62,0.07-1.01,0.48-1.01,1.06
		l0.05,0.4l0.24,0.19c0.32,0.26,0.76,0.21,1.15,0.13c1.63-0.33,3.48-1.14,5.52-2.42c2.82-1.8,4.26-4,4.26-6.54
		c0-1.68-0.98-2.64-2.7-2.64c-1.88,0-3.96,0.93-6.37,2.86c-1.86,1.5-3.37,3.1-4.48,4.76c-2.14,3.2-3.25,6.64-3.29,10.22
		c0,1.81,0.35,3.16,1.09,4.11c0.88,1.11,2.31,1.67,4.24,1.67c0.06,0,0.12,0,0.18,0c1.54-0.03,3.2-0.49,4.95-1.35
		c1.31-0.63,2.41-1.33,3.29-2.11c0.37-0.36,0.62-0.67,0.57-1.05l-0.07-0.31l-0.19-0.16c-0.48-0.4-1.08,0-1.44,0.24
		c-1.51,1.29-2.97,1.94-4.33,1.94c-1.43,0-2.43-0.43-3.05-1.3c-0.65-0.92-0.91-2.32-0.78-4.15c0.22-2.48,1.04-5.2,2.45-8.06
		c0.91-1.83,2.04-3.21,3.35-4.09c0.75-0.5,1.4-0.75,1.93-0.75c0.37,0,0.65,0.06,0.65,0.84
		C215.95,502.82,214.92,504.62,212.81,505.88z M245.01,514.71c-0.62-0.53-1.31,0.18-1.59,0.46c-1.43,1.36-2.72,2.06-3.85,2.06
		c-0.64,0-1.04-0.21-1.04-1.27c0-1.21,0.52-3.56,1.54-6.99c0.25-0.87,0.89-2.78,1.89-5.66c0.73-2.16,1.12-3.53,1.2-4.18
		c0.09-0.68-0.03-1.21-0.34-1.58c-0.19-0.22-0.54-0.49-1.15-0.52c-0.82-0.04-1.82,0.21-3.08,0.77c-1.92,0.86-4.04,2.39-6.29,4.57
		c-1.19,1.15-2.33,2.46-3.4,3.91c1-3.18,1.65-5.6,1.93-7.22c0.11-0.62,0.03-1.11-0.24-1.47c-0.17-0.23-0.5-0.51-1.13-0.57
		c-0.59-0.05-1.29,0.12-2.14,0.48c-1.95,0.87-3.67,1.76-5.12,2.68c-0.34,0.23-0.98,0.67-0.74,1.28c0.1,0.26,0.31,0.45,0.56,0.51
		c0.45,0.11,0.83-0.21,0.92-0.29c1.29-0.99,2.08-1.2,2.51-1.2c0.12,0,0.26,0,0.26,0.55c0,1.77-0.65,4.75-1.92,8.86
		c-1.54,4.91-2.79,8.15-3.72,9.61c-0.1,0.16-0.38,0.58-0.2,1l0.21,0.35l0.3,0.08c0.08,0.02,0.17,0.03,0.25,0.03
		c0.29,0,0.54-0.12,0.7-0.22c1.01-0.48,1.81-0.86,2.4-1.14c0.74-0.36,1.24-0.86,1.49-1.5c0.63-1.72,1.16-3.19,1.56-4.37
		c0.61-1.54,1.61-3.36,2.95-5.4c1.2-1.74,2.27-3.09,3.16-4.01c1.57-1.58,2.96-2.62,4.14-3.1c0.73-0.29,1.05-0.3,1.2-0.27
		c0.02,0.02,0.06,0.12,0.06,0.26c-0.66,2.89-1.3,5.34-1.89,7.31c-2.58,9.02-2.63,9.53-2.65,9.76c-0.05,0.74,0.13,1.33,0.52,1.75
		c0.93,1,2.83,0.92,6.22-0.88c1.87-0.99,3.28-1.95,4.23-2.86c0.41-0.42,0.57-0.73,0.55-1.05l-0.06-0.36L245.01,514.71z
		 M258.34,515.15c-0.35,0.36-0.9,0.77-1.64,1.22c-0.86,0.54-1.57,0.81-2.12,0.81c-0.63,0-1.06-0.22-1.09-1.29
		c-0.04-1.01,0.33-3.05,1.1-6.07c0.56-2.31,1.43-5.32,2.58-8.95l2.98,0c1.19-0.07,2.12-0.42,2.75-1.04
		c0.32-0.31,0.57-0.69,0.78-1.17c0.94-2.23-2.77-0.27-3.49-0.15c-0.75,0.12-1.54,0.11-2.29,0.12c0.54-1.51,1.03-2.72,1.45-3.6
		c0.39-0.79,0.9-1.63,1.51-2.49l0.34-0.47l-0.44-0.38c-0.19-0.17-0.62-0.38-1.25,0.01c-1.23,0.6-2.18,1.07-2.87,1.4
		c-0.85,0.41-1.45,1.16-1.76,2.23c-0.43,1.47-0.76,2.61-0.99,3.41c-0.79,0.01-1.77,0.04-2.92,0.09c-0.58,0-1.02,0.31-1.17,0.84
		c-0.08,0.28-0.04,0.56,0.13,0.78c0.28,0.37,0.76,0.41,1.1,0.41h2.22l-2.49,8.43c-1.44,4.87-2.15,7.81-2.15,9
		c0,1.5,0.92,2.35,2.53,2.35c1.05,0,2.51-0.51,4.48-1.55c1.8-0.95,3.16-1.88,4.05-2.77c0.28-0.27,0.61-0.63,0.6-1.06
		c-0.01-0.23-0.11-0.45-0.29-0.6C259.34,514.14,258.62,514.88,258.34,515.15z M280.2,497.49c-0.34-0.29-0.8-0.42-1.39-0.37
		c-1.7,0.11-3.72,1.79-6.18,5.15c-0.06,0.09-0.12,0.18-0.17,0.27c0.38-1.37,0.66-2.56,0.83-3.58c0.11-0.66,0.02-1.19-0.29-1.55
		c-0.19-0.22-0.54-0.48-1.18-0.48c-1.32,0-3.62,1.01-7.02,3.09c-0.27,0.16-0.98,0.59-0.77,1.3c0.1,0.26,0.31,0.45,0.56,0.52
		c0.46,0.11,0.83-0.2,0.92-0.29c1.29-0.99,2.05-1.2,2.46-1.2c0.12,0,0.26,0,0.26,0.55c0,2.02-0.61,5.01-1.81,8.86
		c-1.46,4.66-2.72,7.83-3.72,9.42c-0.1,0.16-0.38,0.58-0.2,1l0.21,0.35l0.3,0.08c0.08,0.02,0.17,0.03,0.25,0.03
		c0.28,0,0.54-0.12,0.71-0.22c0.96-0.47,1.75-0.85,2.36-1.14c0.77-0.36,1.27-0.86,1.48-1.48c0.71-2.16,1.32-4.11,1.84-5.8
		c1.06-3.02,2.23-5.52,3.5-7.43c0.77-1.13,1.74-2.1,2.89-2.87c0.69-0.45,1.69-0.72,3-0.81c0.53-0.04,1.77-0.35,1.7-2.24
		C280.69,498.16,280.52,497.77,280.2,497.49z M303.92,514.72l-0.27-0.11c-0.47-0.2-0.9,0.17-1.16,0.39
		c-2.07,1.77-3.22,2.14-3.83,2.14c-0.47,0-0.98-0.11-0.98-1.37c0-0.36,0.04-0.79,0.11-1.31c0.22-1.94,0.7-4.28,1.43-6.97
		c1.2-4.38,2.43-7.33,3.68-8.8c0.29-0.37,0.53-0.77,0.37-1.19l-0.07-0.14c-0.12-0.17-0.56-0.66-1.44-0.19
		c-0.71,0.39-1.35,0.74-1.92,1.06c-0.81,0.47-1.53,1.34-2.16,2.6c-0.37,0.89-0.76,1.77-1.15,2.64c-1.71,3.46-3.64,6.28-5.74,8.39
		c-3.46,3.49-4.62,3.87-4.89,3.93c0,0-0.05-0.09-0.05-0.37c0-1.14,0.48-3.38,1.42-6.62c1.41-4.33,2.44-7.42,3.08-9.23
		c0.24-0.9,0.2-1.55-0.14-1.98c-0.17-0.22-0.5-0.49-1.09-0.49c-1.61,0-4.09,0.95-7.56,2.89c-0.59,0.32-0.95,0.55-0.95,0.99
		c0,0.25,0.1,0.48,0.28,0.63c0.36,0.31,0.76,0.13,1.51-0.19c1.87-0.84,2.3-0.94,2.36-0.95c0.19,0,0.24,0.06,0.25,0.08
		c0.05,0.06,0.21,0.32,0.12,1.17c-0.14,1.29-0.7,3.51-1.65,6.59l-1.79,5.44c-0.65,2.05-1.04,3.53-1.2,4.54
		c-0.09,0.74-0.06,1.25,0.1,1.62c0.2,0.46,0.62,0.72,1.13,0.72c0.05,0,0.1,0,0.15-0.01c1.16-0.07,3.4-0.84,9.45-6.81
		c1.1-1.09,2.09-2.15,2.97-3.19c-0.19,0.7-0.38,1.45-0.57,2.25c-0.61,2.54-0.93,4.27-0.97,5.26c-0.05,0.76,0.13,1.37,0.54,1.8
		c0.92,0.97,2.69,1.06,5.98-0.72c1.67-0.91,3.1-1.88,4.3-2.95c0.32-0.36,0.61-0.75,0.47-1.19L303.92,514.72z M342.43,514.37
		c-0.62-0.52-1.34,0.21-1.59,0.46c-1.43,1.36-2.72,2.06-3.85,2.06c-0.64,0-1.04-0.21-1.04-1.27c0-1.39,0.52-3.73,1.53-6.96
		c2.81-8.85,2.85-9.22,2.87-9.4c0.09-0.63-0.02-1.14-0.3-1.5c-0.18-0.22-0.51-0.5-1.13-0.56c-0.62-0.04-1.41,0.15-2.4,0.57
		c-1.92,0.82-4.19,2.48-6.72,4.94c-0.99,0.95-2.04,2.17-3.16,3.64c2.1-6.59,2.15-6.94,2.17-7.1c0.08-0.62-0.02-1.12-0.31-1.49
		c-0.26-0.33-0.65-0.52-1.17-0.57c-0.58-0.04-1.35,0.13-2.34,0.52c-2.16,0.86-4.44,2.49-6.8,4.86c-1.06,1.07-2.1,2.28-3.1,3.62
		c0.81-2.61,1.43-5.04,1.84-7.24c0.11-0.62,0.03-1.11-0.24-1.48c-0.17-0.22-0.5-0.5-1.12-0.56c-0.59-0.03-1.29,0.12-2.14,0.49
		c-1.95,0.88-3.67,1.79-5.12,2.71c-0.34,0.24-0.97,0.67-0.73,1.28c0.1,0.26,0.31,0.45,0.56,0.51c0.45,0.12,0.83-0.2,0.92-0.29
		c1.29-0.99,2.08-1.2,2.51-1.2c0.12,0,0.26,0,0.26,0.55c0,1.95-0.59,4.83-1.76,8.56c-1.54,4.9-2.79,8.13-3.72,9.59
		c-0.1,0.16-0.38,0.57-0.2,1l0.21,0.35l0.3,0.08c0.38,0.11,0.75-0.06,0.95-0.18l2.4-1.14c0.74-0.36,1.24-0.86,1.49-1.5
		c0.63-1.72,1.16-3.18,1.55-4.34c1.52-3.56,3.49-6.58,5.84-8.98c2.97-3.03,4.33-3.4,4.93-3.36c0,0,0.04,0.08,0.01,0.33
		c-0.14,1.48-0.7,3.81-1.65,6.93c-1.03,3.33-2.41,7-4.1,10.89c-0.24,0.54-0.2,0.95,0.11,1.21c0.14,0.12,0.3,0.17,0.46,0.17
		c0.23,0,0.46-0.09,0.67-0.16c1.24-0.58,2.21-1.07,2.85-1.43c0.5-0.24,0.86-0.71,1.06-1.38c0.92-2.77,1.22-3.63,1.32-3.86
		c1.52-3.56,3.51-6.63,5.9-9.1c1.55-1.59,2.86-2.68,3.9-3.21c0.71-0.36,0.99-0.37,1.05-0.37c0.01,0,0.01,0,0.01,0
		c0,0,0.05,0.08,0.04,0.31c-0.11,1.16-0.64,3.45-1.6,6.79c-2.65,9.19-2.65,9.59-2.65,9.8c0,1.49,0.84,2.35,2.31,2.35
		c1.05,0,2.49-0.5,4.43-1.53c1.87-0.99,3.28-1.95,4.23-2.86c0.41-0.43,0.57-0.73,0.55-1.05l-0.06-0.36L342.43,514.37z
		 M378.69,488.49L378.69,488.49c1.26-0.96,2.6-1.44,3.97-1.44c0.62,0,1.25,0.06,1.86,0.18c0.69,0.13,1.2,0.2,1.55,0.2
		c1.68,0,1.87-0.98,1.87-1.4c0-1.68-2.45-1.68-3.26-1.68c-2.4,0-5.43,1.45-9.27,4.42c-2.99,2.32-5.12,5.21-6.36,8.6
		c-1.74,5.43-3,9.56-3.75,12.27c-1.27,4.51-2.18,7.75-2.73,9.71c-0.1,0.35-0.12,0.6-0.07,0.82c0.04,0.29,0.2,0.44,0.31,0.51
		l0.37,0.19l0.32-0.14c0.13-0.06,0.28-0.15,0.44-0.29c0.16-0.14,0.56-0.39,1.52-0.77c1.05-0.42,1.66-1.05,1.81-1.86
		c0.34-1.51,0.63-2.67,0.88-3.53c1.09-3.5,2.78-6.72,5.03-9.57c1.95-2.46,3.68-3.71,5.14-3.71c0.19,0,0.48,0,0.48,0.89
		c0,0.6-0.4,1.74-2.33,3.75c-1.09,1.14-2.58,2.12-4.33,2.87c-0.44,0.11-0.78,0.37-0.95,0.72c-0.23,0.39-0.17,0.96,0.23,2.01
		c0.64,1.83,1.31,3.43,1.99,4.76c1.61,3.1,3.01,4.54,4.42,4.54c0.61,0,1.49-0.35,2.77-1.09c1.22-0.7,2.12-1.36,2.75-2.01
		c0.11-0.11,0.46-0.46,0.38-0.91l-0.15-0.42l-0.26-0.12c-0.41-0.23-0.85,0.09-1.09,0.27c-1.08,0.7-1.61,0.8-1.83,0.8
		c-0.44,0-1.43-0.38-3.16-2.91c-0.9-1.31-1.55-2.51-1.94-3.57c-0.16-0.44-0.24-0.88-0.24-1.3c0-0.01,0.08-0.23,0.72-0.74
		c1.35-1.09,2.33-1.93,2.89-2.52c2.76-2.72,4.1-4.92,4.1-6.73c0-2.16-1.3-2.4-1.87-2.4c-2.3,0-5.25,2.12-9.02,6.49
		c-0.43,0.5-0.91,1.16-1.42,1.95c1.45-4.53,2.69-7.9,3.71-10.06C375.73,491.86,377.26,489.57,378.69,488.49z M401.66,498.24
		c0.98,1.02,1.43,2.68,1.34,4.92c-0.23,5.32-2.29,9.89-6.11,13.59c-2.68,2.58-5.21,3.9-7.53,3.9c-1.33,0-2.39-0.4-3.15-1.2
		c-1.02-1.07-1.46-2.76-1.34-5.19c0.23-5.15,2.24-9.72,5.98-13.57c0.82-0.87,1.91-1.66,3.23-2.36
		C397.33,496.53,400.15,496.67,401.66,498.24z M395.43,515.26c1.93-2.81,3.02-6.37,3.24-10.58c0.07-1.49-0.18-2.72-0.73-3.68
		c-0.5-0.87-1.17-1.28-2.1-1.28c-1.18,0-2.34,0.82-3.44,2.44c-1.97,2.94-3.08,6.5-3.3,10.59c-0.07,1.48,0.17,2.68,0.72,3.56
		c0.5,0.82,1.15,1.2,2.05,1.2C393.22,517.48,394.39,516.75,395.43,515.26z M418.22,496.92c-2.23,0-4.34,0.61-6.25,1.81
		c-2.79,1.74-4.21,3.7-4.21,5.83c0,1.05,0.38,2.13,1.1,3.2c0.28,0.44,0.99,1.34,2.17,2.74c1.57,1.84,2.36,3.34,2.36,4.45
		c0,0.79-0.33,1.44-0.99,1.98c-0.81,0.64-1.9,0.96-3.24,0.96c-1.48,0-3.28-0.22-3.44-1.27c-0.06-0.39-0.03-0.72,0.07-0.98
		c0.29-0.7,0.21-1.19-0.29-1.47c-0.72-0.31-1.23,0.5-1.4,0.77c-0.7,1.09-1.05,2.24-1.05,3.44c0,0.86,0.42,2.3,3.26,2.3
		c2.45,0,4.75-0.64,6.81-1.9c2.8-1.7,4.21-3.59,4.21-5.6c0-1.58-1-3.45-3.07-5.72c-2.12-2.33-2.57-3.54-2.57-4.15
		c0-1.36,0.47-2.38,1.43-3.12c0.66-0.51,1.58-0.77,2.74-0.77c0.18,0,0.54,0.05,1.22,0.28c0.67,0.23,1.13,0.35,1.46,0.39
		c1.36,0.13,1.83-0.66,2-1.15c0.2-0.62,0.03-1.05-0.15-1.29C420.05,497.16,419.35,496.92,418.22,496.92z M457.21,514.38
		c-0.61-0.52-1.34,0.2-1.59,0.46c-1.43,1.36-2.73,2.06-3.85,2.06c-0.64,0-1.04-0.21-1.04-1.27c0-1.39,0.52-3.73,1.53-6.96
		c2.81-8.83,2.85-9.23,2.87-9.4c0.09-0.63-0.02-1.14-0.3-1.5c-0.18-0.22-0.51-0.5-1.13-0.55c-0.62-0.02-1.41,0.15-2.41,0.57
		c-1.92,0.82-4.19,2.48-6.73,4.94c-0.99,0.95-2.04,2.17-3.16,3.64c2.11-6.59,2.15-6.95,2.17-7.1c0.08-0.62-0.02-1.12-0.31-1.49
		c-0.26-0.33-0.65-0.52-1.17-0.57c-0.59-0.04-1.35,0.13-2.34,0.52c-2.16,0.85-4.45,2.49-6.8,4.86c-1.06,1.07-2.1,2.28-3.1,3.62
		c0.81-2.61,1.43-5.04,1.84-7.24c0.11-0.62,0.03-1.11-0.24-1.48c-0.17-0.22-0.5-0.5-1.12-0.56c-0.6-0.04-1.29,0.12-2.14,0.49
		c-1.95,0.88-3.67,1.78-5.12,2.71c-0.34,0.24-0.98,0.67-0.74,1.28c0.1,0.26,0.31,0.45,0.56,0.51c0.45,0.12,0.83-0.2,0.93-0.29
		c1.29-0.99,2.08-1.2,2.51-1.2c0.12,0,0.26,0,0.26,0.55c0,1.95-0.59,4.83-1.76,8.56c-1.54,4.9-2.79,8.13-3.72,9.59
		c-0.1,0.16-0.38,0.57-0.2,1l0.21,0.35l0.3,0.08c0.38,0.11,0.74-0.06,0.95-0.18l2.4-1.14c0.74-0.36,1.24-0.86,1.49-1.5
		c0.63-1.72,1.16-3.18,1.55-4.34c1.52-3.56,3.49-6.58,5.84-8.98c2.97-3.03,4.36-3.4,4.93-3.36c0,0,0.04,0.08,0.01,0.33
		c-0.15,1.48-0.7,3.81-1.65,6.93c-1.04,3.34-2.42,7.01-4.11,10.89c-0.24,0.54-0.2,0.95,0.12,1.22c0.14,0.12,0.29,0.16,0.45,0.16
		c0.23,0,0.46-0.09,0.67-0.16c1.24-0.58,2.21-1.07,2.85-1.43c0.5-0.24,0.86-0.71,1.06-1.38c0.91-2.77,1.22-3.63,1.32-3.86
		c1.52-3.56,3.51-6.63,5.9-9.1c1.54-1.59,2.86-2.68,3.9-3.21c0.74-0.37,1-0.35,1.05-0.37c0,0,0.06-0.02,0.04,0.31
		c-0.11,1.16-0.64,3.45-1.6,6.79c-2.65,9.19-2.65,9.59-2.65,9.8c0,1.49,0.84,2.35,2.31,2.35c1.05,0,2.5-0.5,4.43-1.53
		c1.87-0.99,3.28-1.95,4.23-2.86c0.41-0.43,0.57-0.73,0.55-1.05l-0.06-0.36L457.21,514.38z M473.04,497.07c-1.85,0-4,0.96-6.37,2.86
		c-1.87,1.5-3.38,3.1-4.49,4.76c-2.14,3.2-3.25,6.64-3.29,10.22c0,1.79,0.36,3.17,1.09,4.11c0.88,1.11,2.31,1.67,4.24,1.67
		c0.06,0,0.12,0,0.18,0c1.54-0.03,3.2-0.49,4.95-1.35c1.31-0.63,2.42-1.33,3.29-2.11c0.37-0.36,0.61-0.67,0.57-1.05l-0.07-0.31
		l-0.19-0.16c-0.47-0.4-1.08,0-1.44,0.24c-1.51,1.29-2.97,1.94-4.33,1.94c-1.43,0-2.43-0.43-3.05-1.3
		c-0.65-0.92-0.91-2.32-0.78-4.15c0.22-2.48,1.04-5.2,2.45-8.06c0.91-1.83,2.04-3.21,3.36-4.09c0.74-0.5,1.4-0.75,1.93-0.75
		c0.37,0,0.65,0.06,0.65,0.84c0,2.45-1.03,4.25-3.15,5.5c-0.89,0.53-1.92,0.87-3.04,1.01c-0.62,0.07-1.01,0.48-1.01,1.06l0.05,0.4
		l0.24,0.19c0.32,0.26,0.77,0.21,1.15,0.13c1.63-0.33,3.48-1.14,5.52-2.42c2.83-1.8,4.26-4,4.26-6.54
		C475.74,498.03,474.76,497.07,473.04,497.07z M487.01,515.15c-0.35,0.36-0.9,0.77-1.64,1.22c-0.86,0.54-1.57,0.81-2.12,0.81
		c-0.63,0-1.06-0.22-1.09-1.29c-0.04-1.01,0.33-3.05,1.1-6.07c0.57-2.32,1.43-5.33,2.58-8.95l2.98,0c1.19-0.07,2.12-0.42,2.75-1.04
		c0.32-0.31,0.57-0.69,0.78-1.17c0.17-0.53,0.28-1.66-0.58-1.24c-0.95,0.46-1.79,0.95-2.85,1.08c-0.5,0.07-1.29,0.11-2.36,0.13
		c0.54-1.51,1.03-2.72,1.46-3.6c0.42-0.84,1.19-1.66,1.4-2.58c0.21-0.91-0.54-1.1-1.25-0.75c-1.23,0.6-2.18,1.07-2.87,1.4
		c-0.85,0.41-1.45,1.16-1.76,2.23c-0.43,1.47-0.76,2.61-0.99,3.41c-0.79,0.01-1.77,0.04-2.92,0.09c-0.58,0-1.02,0.31-1.17,0.84
		c-0.08,0.28-0.04,0.56,0.13,0.78c0.28,0.37,0.76,0.41,1.1,0.41h2.22l-2.49,8.43c-1.45,4.87-2.15,7.81-2.15,9
		c0,1.5,0.92,2.35,2.54,2.35c1.05,0,2.51-0.51,4.48-1.55c1.8-0.94,3.16-1.88,4.05-2.77c0.28-0.27,0.61-0.63,0.6-1.06
		c-0.01-0.23-0.11-0.45-0.29-0.61C488.02,514.14,487.29,514.88,487.01,515.15z M508,498.24c0.98,1.02,1.43,2.68,1.34,4.92
		c-0.23,5.32-2.29,9.89-6.11,13.59c-2.68,2.58-5.21,3.9-7.53,3.9c-1.33,0-2.39-0.4-3.15-1.2c-1.02-1.07-1.46-2.76-1.34-5.19
		c0.23-5.15,2.24-9.72,5.98-13.57c0.82-0.87,1.91-1.66,3.23-2.36C503.67,496.53,506.49,496.67,508,498.24z M501.77,515.26
		c1.93-2.81,3.02-6.37,3.24-10.58c0.07-1.49-0.18-2.72-0.73-3.68c-0.5-0.87-1.17-1.28-2.1-1.28c-1.18,0-2.34,0.82-3.44,2.44
		c-1.97,2.94-3.08,6.5-3.3,10.59c-0.07,1.48,0.17,2.68,0.72,3.56c0.5,0.82,1.15,1.2,2.05,1.2
		C499.56,517.48,500.73,516.75,501.77,515.26z M523.15,514.35l-0.3-0.12c-0.49-0.2-0.95,0.22-1.24,0.51l-0.02,0.02
		c-1.47,1.52-2.74,2.28-3.78,2.28c-0.53,0-1.09-0.11-1.09-1.46c0-1.62,0.52-4.25,1.54-7.83c1.25-4.34,2.62-8.31,4.05-11.8
		c1.51-3.69,3.15-6.23,4.89-7.56c1.33-1.05,2.72-1.58,4.13-1.58c0.62,0,1.25,0.06,1.86,0.18c0.7,0.13,1.2,0.2,1.55,0.2
		c1.68,0,1.87-0.98,1.87-1.4c0-1.68-2.45-1.68-3.26-1.68c-2.32,0-5.33,1.43-9.2,4.37c-2.99,2.26-5.24,5.45-6.69,9.49
		c-1.38,3.78-2.6,7.63-3.65,11.44c-1.22,4.41-1.81,7.23-1.81,8.6c0,1.68,0.88,2.64,2.42,2.64c0.98,0,2.39-0.53,4.31-1.63
		c1.86-1.06,3.27-2.14,4.22-3.22c0.22-0.27,0.47-0.64,0.37-1.04L523.15,514.35z M537.45,516.75c-2.68,2.58-5.21,3.9-7.53,3.9
		c-1.33,0-2.39-0.4-3.15-1.2c-1.02-1.07-1.46-2.76-1.34-5.19c0.23-5.15,2.24-9.72,5.98-13.57c0.82-0.87,1.91-1.66,3.23-2.36
		c3.24-1.8,6.06-1.66,7.57-0.09c0.98,1.02,1.43,2.68,1.34,4.92C543.33,508.49,541.28,513.06,537.45,516.75z M535.99,515.26
		c1.93-2.81,3.02-6.37,3.24-10.58c0.07-1.49-0.18-2.72-0.73-3.68c-0.5-0.87-1.17-1.28-2.1-1.28c-1.18,0-2.34,0.82-3.44,2.44
		c-1.97,2.94-3.08,6.5-3.3,10.59c-0.07,1.48,0.17,2.68,0.72,3.56c0.5,0.82,1.15,1.2,2.05,1.2
		C533.78,517.48,534.95,516.75,535.99,515.26z M553.33,515.62c0.02,0.42,0.37,1.52,2.54,4.19c1.27,1.6,1.86,2.94,1.82,4.09
		c-0.12,1.94-1.33,3.81-3.6,5.57c-2.89,2.23-6.19,3.41-9.81,3.51c-0.18,0.01-0.36,0.01-0.53,0.01c-2.13,0-3.71-0.39-4.82-1.17
		c-1.28-0.9-1.84-2.16-1.66-3.73c0.16-1.47,0.67-2.83,1.5-4.05c0.22-0.31,0.86-1.23,1.59-0.75c0.6,0.5,0.16,1.2-0.03,1.5
		c-0.17,0.27-0.29,0.61-0.35,1c-0.03,0.21-0.05,0.42-0.05,0.62c0,1.06,0.49,1.9,1.51,2.6c1.08,0.73,2.57,1.1,4.44,1.1
		c2.8,0,4.92-0.48,6.31-1.44c1.32-0.91,1.93-1.93,1.87-3.14c-0.02-0.41-0.3-1.21-1.54-2.73c-0.55-0.66-1.1-1.34-1.62-2.01
		c-0.69-0.96-1.04-1.77-1.08-2.5c-0.03-0.81,0.18-1.61,0.63-2.4c-0.89,0.35-1.51,0.52-1.95,0.52c-1.05,0-2.81-0.48-2.87-3.72
		c0-1.52,0.43-3.27,1.28-5.21c0.84-1.93,1.97-3.63,3.36-5.06c1.37-1.41,2.89-2.65,4.53-3.68c1.9-1.22,3.41-1.81,4.58-1.81
		c0.6,0,1.27,0.2,2.04,0.63c0.57,0.31,1.51,0.45,2.81,0.42c0.65,0,0.88,0.38,0.94,0.54c0.13,0.44-0.02,0.92-0.61,1.12
		c-0.67,0.22-1.43,0.35-2.27,0.4c0.01,0.19,0.02,0.4,0.02,0.62c0,2.83-1.59,6.23-4.72,10.11c-0.47,0.6-1.19,1.33-2.19,2.22
		l-0.34,0.29C553.89,514.16,553.3,514.97,553.33,515.62z M551.33,513.27c1.22-0.08,2.64-1.24,4.19-3.45
		c1.45-2.08,2.21-4.48,2.29-7.13c0.03-0.7-0.06-1.29-0.28-1.77c-0.22-0.51-0.54-0.73-1.05-0.73c-0.02,0-0.05,0-0.07,0
		c-1.3,0.08-2.72,1.18-4.19,3.26c-1.63,2.3-2.47,4.82-2.51,7.5c0,1.12,0.22,1.65,0.4,1.9C550.19,512.97,550.43,513.32,551.33,513.27
		z M575.12,490.3c-0.94-0.89-2.38-0.88-3.31,0c-0.5,0.47-0.77,1.1-0.77,1.81c0,0.7,0.26,1.33,0.75,1.82
		c0.47,0.47,1.03,0.71,1.67,0.71c0.64,0,1.2-0.24,1.67-0.71c0.49-0.49,0.75-1.12,0.75-1.82C575.89,491.4,575.62,490.78,575.12,490.3
		z M575.44,514.52c-0.56-0.48-1.17,0.15-1.48,0.46c-1.43,1.37-2.77,2.08-3.96,2.1c-0.36,0-0.62-0.07-0.72-0.19
		c-0.08-0.11-0.21-0.39-0.21-1.06c0.03-1.3,0.59-3.61,1.64-6.87c3.02-9.18,3.12-9.69,3.14-9.83c0.14-0.67,0.07-1.2-0.23-1.57
		c-0.18-0.22-0.53-0.49-1.17-0.49c-0.77,0-2.35,0.34-7.08,3.24c-0.43,0.26-0.87,0.58-0.87,1.07l0.04,0.23
		c0.1,0.26,0.3,0.45,0.56,0.52c0.46,0.12,0.83-0.2,0.9-0.27c1.57-1.07,2.29-1.26,2.58-1.27c0.1,0,0.14,0.01,0.14,0.01
		c0,0,0.08,0.09,0.08,0.47c0.02,0.67-0.26,2.51-1.76,7.48c-0.13,0.46-0.56,1.86-1.89,5.88c-0.92,2.79-1.04,3.53-1.04,3.87
		c0,0.74,0.19,1.31,0.57,1.7c0.39,0.4,1,0.6,1.85,0.6c1.01,0,2.48-0.54,4.49-1.65c1.79-0.97,3.19-1.94,4.18-2.89
		c0.26-0.27,0.52-0.61,0.5-1l-0.06-0.37L575.44,514.52z M590.17,514.52c-0.56-0.48-1.17,0.15-1.48,0.46
		c-1.43,1.37-2.77,2.08-3.96,2.1c-0.36,0-0.62-0.07-0.72-0.19c-0.08-0.11-0.21-0.39-0.21-1.06c0.03-1.3,0.59-3.61,1.64-6.87
		c3.02-9.18,3.12-9.69,3.14-9.83c0.14-0.67,0.07-1.2-0.23-1.57c-0.18-0.22-0.53-0.49-1.17-0.49c-0.77,0-2.35,0.34-7.08,3.24
		c-0.43,0.26-0.87,0.58-0.87,1.07l0.04,0.23c0.1,0.26,0.3,0.45,0.56,0.52c0.46,0.12,0.83-0.2,0.9-0.27
		c1.57-1.07,2.29-1.26,2.58-1.27c0.11,0,0.14,0.01,0.14,0.01c0,0,0.08,0.09,0.08,0.47c0.02,0.67-0.26,2.51-1.76,7.48
		c-0.13,0.46-0.56,1.86-1.89,5.88c-0.92,2.79-1.04,3.53-1.04,3.87c0,0.74,0.19,1.31,0.57,1.7c0.39,0.4,1,0.6,1.85,0.6
		c1.01,0,2.48-0.54,4.49-1.65c1.79-0.97,3.19-1.94,4.18-2.89c0.26-0.27,0.52-0.61,0.5-1l-0.06-0.37L590.17,514.52z M589.85,490.3
		c-0.94-0.89-2.38-0.88-3.31,0c-0.5,0.47-0.77,1.1-0.77,1.81c0,0.7,0.26,1.33,0.75,1.82c0.47,0.47,1.03,0.71,1.67,0.71
		c0.64,0,1.2-0.24,1.67-0.71c0.49-0.49,0.75-1.12,0.75-1.82C590.62,491.4,590.36,490.78,589.85,490.3z M620.54,514.35l-0.3-0.12
		c-0.49-0.2-0.95,0.22-1.24,0.51l-0.02,0.02c-1.47,1.52-2.74,2.28-3.78,2.28c-0.53,0-1.09-0.11-1.09-1.46
		c0-1.62,0.52-4.25,1.54-7.83c1.25-4.34,2.61-8.31,4.05-11.8c1.51-3.69,3.15-6.23,4.88-7.56c1.33-1.05,2.72-1.58,4.13-1.58
		c0.62,0,1.25,0.06,1.86,0.18c0.69,0.13,1.2,0.2,1.55,0.2c1.68,0,1.86-0.98,1.86-1.4c0-1.68-2.45-1.68-3.26-1.68
		c-2.32,0-5.33,1.43-9.2,4.37c-2.99,2.26-5.24,5.45-6.69,9.49c-1.38,3.78-2.6,7.63-3.64,11.44c-1.22,4.41-1.81,7.23-1.81,8.6
		c0,1.68,0.88,2.64,2.42,2.64c0.98,0,2.39-0.53,4.31-1.63c1.86-1.06,3.27-2.14,4.22-3.22c0.22-0.27,0.47-0.64,0.37-1.04
		L620.54,514.35z M645.71,515.32c0.09,0.48-0.27,0.85-0.58,1.12c-1.19,1.01-2.61,1.98-4.24,2.86c-1.71,0.94-3.01,1.39-3.99,1.39
		c-1.65,0-2.59-0.91-2.59-2.49c0-1.52,0.34-3.45,1.02-5.84c-0.57,0.68-1.22,1.38-1.94,2.11c-4.11,4.19-7.19,6.22-9.44,6.22
		c-0.59,0-1.06-0.19-1.42-0.56c-0.47-0.48-0.69-1.23-0.66-2.29c0.08-3.81,1.44-7.85,4.06-12c1.41-2.22,3.6-4.35,6.48-6.33
		c2.63-1.81,4.86-2.66,6.75-2.59c1.03,0.04,1.8,0.35,2.29,0.92c0.25,0.29,0.42,0.65,0.51,1.06c0.46-0.33,0.86-0.62,1.19-0.89
		c0.67-0.56,1.22-0.68,1.65-0.32c0.55,0.48,0.05,1.19-0.11,1.42c-1.59,2.34-2.95,5.33-4.04,8.88c-0.84,2.76-1.3,5.09-1.37,6.94
		c-0.05,1.25,0.01,1.62,0.04,1.72c0.09,0.35,0.28,0.58,0.89,0.58c0.61,0,1.76-0.37,3.83-2.13c0.25-0.22,0.67-0.59,1.15-0.4
		C645.46,514.81,645.66,515.03,645.71,515.32z M632.03,513.23c2.65-2.79,5.14-6.85,7.41-12.06c0.08-0.18,0.11-0.34,0.11-0.51
		c0-0.23,0-0.72-1.06-0.95c-0.28-0.05-0.6-0.08-0.93-0.08c-1.46,0-2.85,0.47-4.15,1.4c-1.9,1.38-3.57,3.85-4.97,7.35
		c-1.23,3.05-1.83,5.48-1.8,7.23c0.01,0.28,0.06,1.24,0.42,1.24C627.65,516.85,629.04,516.38,632.03,513.23z M662.97,497.66
		c-0.36-0.5-1.06-0.73-2.19-0.73c-2.23,0-4.34,0.61-6.25,1.81c-2.79,1.74-4.21,3.7-4.21,5.83c0,1.05,0.38,2.13,1.1,3.2
		c0.28,0.44,0.99,1.34,2.17,2.74c1.57,1.84,2.36,3.34,2.36,4.45c0,0.79-0.33,1.44-0.98,1.98c-0.81,0.64-1.9,0.96-3.23,0.96
		c-1.48,0-3.28-0.22-3.44-1.27c-0.06-0.39-0.03-0.72,0.07-0.98c0.28-0.7,0.21-1.19-0.29-1.47c-0.72-0.31-1.23,0.5-1.4,0.77
		c-0.7,1.09-1.05,2.24-1.05,3.44c0,0.86,0.42,2.3,3.26,2.3c2.45,0,4.74-0.64,6.8-1.9c2.79-1.7,4.21-3.59,4.21-5.6
		c0-1.58-1-3.45-3.07-5.72c-2.12-2.33-2.57-3.54-2.57-4.15c0-1.36,0.47-2.38,1.43-3.12c0.66-0.51,1.58-0.77,2.73-0.77
		c0.18,0,0.54,0.05,1.22,0.28c0.67,0.23,1.13,0.35,1.46,0.39c1.36,0.13,1.83-0.66,2-1.15C663.32,498.33,663.15,497.9,662.97,497.66z
		 M672.79,505.88c-0.89,0.53-1.92,0.87-3.04,1.01c-0.62,0.07-1.01,0.48-1.01,1.06l0.05,0.4l0.24,0.19c0.32,0.26,0.77,0.21,1.15,0.13
		c1.63-0.33,3.48-1.14,5.52-2.42c2.82-1.8,4.26-4,4.26-6.54c0-1.68-0.98-2.64-2.7-2.64c-1.85,0-4,0.96-6.37,2.86
		c-1.87,1.5-3.38,3.1-4.48,4.76c-2.14,3.2-3.25,6.64-3.29,10.22c0,1.79,0.36,3.17,1.09,4.11c0.88,1.11,2.31,1.67,4.24,1.67
		c0.06,0,0.12,0,0.18,0c1.54-0.03,3.2-0.49,4.95-1.35c1.31-0.63,2.41-1.33,3.29-2.11c0.37-0.36,0.61-0.67,0.57-1.05l-0.07-0.31
		l-0.19-0.16c-0.47-0.4-1.08,0-1.44,0.24c-1.51,1.29-2.97,1.94-4.33,1.94c-1.43,0-2.43-0.43-3.05-1.3
		c-0.65-0.92-0.91-2.32-0.78-4.15c0.22-2.48,1.04-5.2,2.45-8.06c0.91-1.83,2.04-3.21,3.35-4.09c0.74-0.5,1.4-0.75,1.93-0.75
		c0.37,0,0.65,0.06,0.65,0.84C675.94,502.82,674.91,504.62,672.79,505.88z M697.96,498.68L697.96,498.68
		c-0.03-0.52-0.2-0.91-0.52-1.19c-0.34-0.3-0.81-0.42-1.39-0.38c-1.7,0.11-3.72,1.78-6.19,5.15c-0.06,0.09-0.11,0.18-0.17,0.27
		c0.38-1.37,0.66-2.56,0.83-3.58c0.12-0.66,0.02-1.18-0.28-1.55c-0.19-0.22-0.54-0.49-1.18-0.49c-1.32,0-3.62,1.01-7.02,3.09
		c-0.27,0.16-0.98,0.59-0.77,1.3c0.1,0.26,0.31,0.45,0.56,0.51c0.46,0.11,0.83-0.21,0.92-0.29c1.29-0.99,2.05-1.2,2.46-1.2
		c0.12,0,0.26,0,0.26,0.55c0,2.02-0.61,5.01-1.81,8.86c-1.46,4.66-2.72,7.83-3.72,9.42c-0.1,0.16-0.38,0.58-0.2,1l0.21,0.35
		l0.3,0.08c0.08,0.02,0.17,0.03,0.25,0.03c0.28,0,0.54-0.12,0.71-0.22c0.96-0.47,1.75-0.85,2.36-1.14c0.78-0.36,1.27-0.86,1.48-1.48
		c0.71-2.16,1.32-4.11,1.84-5.8c1.06-3.02,2.23-5.52,3.5-7.43c0.77-1.13,1.74-2.1,2.89-2.87c0.69-0.45,1.69-0.72,3-0.81
		C696.8,500.87,698.04,500.56,697.96,498.68z M712.69,498.24c0.98,1.02,1.43,2.68,1.34,4.92c-0.23,5.32-2.28,9.89-6.11,13.59
		c-2.68,2.58-5.21,3.9-7.53,3.9c-1.33,0-2.39-0.4-3.15-1.2c-1.02-1.07-1.46-2.76-1.34-5.19c0.23-5.15,2.24-9.72,5.98-13.57
		c0.82-0.87,1.91-1.66,3.23-2.36C708.36,496.53,711.18,496.67,712.69,498.24z M706.46,515.26c1.93-2.81,3.02-6.37,3.24-10.58
		c0.07-1.49-0.18-2.72-0.72-3.68c-0.5-0.87-1.17-1.28-2.1-1.28c-1.18,0-2.34,0.82-3.43,2.44c-1.97,2.94-3.08,6.5-3.3,10.59
		c-0.07,1.48,0.17,2.68,0.72,3.56c0.5,0.82,1.15,1.2,2.05,1.2C704.25,517.48,705.42,516.75,706.46,515.26z M748.45,498.29
		c-0.14-0.73-0.68-1.12-1.53-1.08c-0.73,0.08-1.51,0.63-2.37,1.67c-1.88,2.31-3.53,4.84-4.93,7.51c-1.4,2.68-2.53,4.95-3.38,6.78
		c-0.01-1.26-0.04-2.83-0.11-4.72c-0.24-6.55-0.25-7.86-0.23-8.05c0.1-0.87,0.28-1.55,0.56-2.06c0.18-0.39,0.06-0.67-0.02-0.8
		c-0.13-0.2-0.34-0.32-0.59-0.34c-0.33-0.06-0.66,0.09-0.98,0.42c-2.98,3.01-5.92,6.53-8.72,10.48c-0.98,1.4-1.81,2.65-2.5,3.74
		c0.53-2.52,0.93-5.23,1.2-8.1c0.19-2.3,0.11-3.96-0.26-5.08c-0.38-1.09-1.07-1.4-1.58-1.47c-0.86-0.1-1.84,0.07-2.9,0.5
		c-1.19,0.39-2.27,0.86-3.2,1.36c-0.2,0.1-0.67,0.32-0.73,0.79l0,0.43l0.22,0.18c0.14,0.16,0.33,0.27,0.54,0.29
		c0.25,0.03,0.5-0.04,0.75-0.23c0.65-0.25,1.21-0.36,1.67-0.31c0.37,0.04,0.63,0.7,0.75,1.07c0.53,1.8,0.49,4.56-0.13,8.2
		c-0.7,4.1-1.55,7.35-2.54,9.72c-0.11,0.33-0.24,0.8,0,1.2c0.07,0.11,0.45,0.67,1.42,0.2c0.82-0.58,1.7-1.11,2.61-1.58
		c0.42-0.22,0.71-0.51,0.89-0.87c1.02-2.21,2.71-5.05,5.02-8.44c1.4-2.02,2.87-3.99,4.4-5.86c0.01,0.14,0.01,0.28,0.02,0.43
		c0.07,1.59,0.17,3.42,0.28,5.48c0.15,3.41,0.17,5.9,0.06,7.41l-0.16,2.44c-0.11,0.87,0.47,1.14,0.61,1.19
		c0.22,0.09,0.66,0.18,1.13-0.22c0.69-0.52,1.38-1.03,2.08-1.54c0.3-0.3,0.52-0.67,0.66-1.13c0.95-3.27,2.61-6.92,4.96-10.83
		c1.87-3.12,3.76-5.33,5.6-6.57C747.42,500.26,748.7,499.44,748.45,498.29z M751.97,520.69c1.54-0.03,3.2-0.49,4.95-1.35
		c1.31-0.62,2.41-1.33,3.29-2.11c0.37-0.36,0.61-0.67,0.57-1.05l-0.07-0.31l-0.19-0.16c-0.47-0.4-1.08,0-1.44,0.24
		c-1.51,1.29-2.97,1.94-4.33,1.94c-1.43,0-2.43-0.43-3.05-1.3c-0.65-0.92-0.91-2.32-0.78-4.15c0.22-2.48,1.04-5.2,2.45-8.06
		c0.91-1.83,2.04-3.21,3.35-4.09c0.74-0.5,1.4-0.75,1.93-0.75c0.37,0,0.65,0.06,0.65,0.84c0,2.45-1.03,4.25-3.15,5.5
		c-0.89,0.53-1.92,0.87-3.04,1.01c-0.62,0.07-1.01,0.48-1.01,1.06l0.05,0.4l0.24,0.19c0.32,0.26,0.77,0.21,1.15,0.13
		c1.63-0.33,3.48-1.14,5.52-2.42c2.82-1.8,4.26-4,4.26-6.54c0-1.68-0.98-2.64-2.7-2.64c-1.85,0-4,0.96-6.37,2.86
		c-1.87,1.5-3.37,3.1-4.48,4.76c-2.14,3.2-3.25,6.64-3.29,10.22c0,1.79,0.36,3.17,1.09,4.11c0.88,1.11,2.31,1.67,4.24,1.67
		C751.85,520.69,751.91,520.69,751.97,520.69z M772.71,496.92c-1.32,0-3.66,1.03-7.13,3.14c-0.27,0.16-0.98,0.59-0.77,1.3
		c0.1,0.26,0.31,0.45,0.56,0.51c0.45,0.12,0.83-0.2,0.92-0.29c1.29-0.99,2.08-1.2,2.51-1.2c0.11,0,0.23,0,0.26,0.48
		c0.02,0.72-0.23,2.6-1.6,7.53c-1.03,3.7-2.07,7.07-3.11,10.02c-1.28,3.69-2.35,6.21-3.18,7.5c-1.3,2.11-2.86,3.13-4.76,3.13
		c-0.78,0-1.53-0.12-2.23-0.35c-1.24-0.41-1.39-0.41-1.51-0.41c-1.01,0-1.64,0.59-1.64,1.54c0,1.92,2.87,1.92,3.82,1.92
		c1.84,0,3.94-0.95,6.42-2.9c3.28-2.58,5.74-6.25,7.3-10.93c1.18-3.57,2.14-6.57,2.85-8.93c1.58-5.32,2.48-8.6,2.75-10.03
		c0.12-0.66,0.02-1.19-0.28-1.55C773.7,497.19,773.35,496.92,772.71,496.92z M775.19,490.67c-0.61-1.12-1.97-1.58-3.14-1.06
		c-0.62,0.28-1.07,0.77-1.29,1.43c-0.22,0.65-0.17,1.32,0.14,1.93c0.3,0.59,0.75,0.99,1.36,1.2c0.6,0.2,1.21,0.16,1.8-0.12
		c0.62-0.3,1.07-0.8,1.29-1.45C775.57,491.94,775.52,491.28,775.19,490.67z"/>
</g>
</svg>
